# xmcd
#
# Track frame offsets:
#	150
#	10307
#	21463
#	35076
#	52768
#	64189
#	76180
#	92108
#	106342
#	124546
#	137677
#	148464
#	175657
#	197830
#
# Disc length: 2777 seconds
#
# Revision: 0
# Processed by: cddbd v1.5.2PL0 Copyright (c) Steve Scherf et al.
# Submitted via: EZCDAudioConverter 1.2.3.1
#
DISCID=c00ad70e
DTITLE=TAV FALCO and THE PANTHER BURNS - LORE AND TESTAMENT V1 1/2
DYEAR=1900
DGENRE=
TTITLE0=COME ON LITTLE MAMA
TTITLE1=SHE'S THE ONE THAT'S GOT IT
TTITLE2=HEY HIGH SCHOOL BABY
TTITLE3=BRAZIL
TTITLE4=YOU'RE UNDECIDED
TTITLE5=RIVER OF LOVE
TTITLE6=OOEEE BABY
TTITLE7=SNAKE DRIVE
TTITLE8=BLIND MAN
TTITLE9=WHERE THE RIO DE ROSA FLOWS
TTITLE10=SNATCH IT BACK
TTITLE11=BOURGEOIS BLUES
TTITLE12=ST. LOUIS BLUES
TTITLE13=MOVING ON DOWN THE LINE
EXTD=
EXTT0=
EXTT1=
EXTT2=
EXTT3=
EXTT4=
EXTT5=
EXTT6=
EXTT7=
EXTT8=
EXTT9=
EXTT10=
EXTT11=
EXTT12=
EXTT13=
PLAYORDER=
